<?xml version="1.0" standalone="no"?>
<!DOCTYPE svg PUBLIC "-//W3C//DTD SVG 20010904//EN"
 "http://www.w3.org/TR/2001/REC-SVG-20010904/DTD/svg10.dtd">
<svg version="1.0" xmlns="http://www.w3.org/2000/svg"
 width="1280.000000pt" height="853.000000pt" viewBox="0 0 1280.000000 853.000000"
 preserveAspectRatio="xMidYMid meet">
<metadata>
Created by potrace 1.15, written by Peter Selinger 2001-2017
</metadata>
<g transform="translate(0.000000,853.000000) scale(0.100000,-0.100000)"
fill="#000000" stroke="none">
<path d="M6575 7736 c-359 -70 -710 -405 -923 -880 -73 -165 -150 -396 -221
-671 -57 -217 -116 -387 -181 -514 -40 -80 -120 -178 -256 -316 -66 -66 -161
-175 -211 -242 -96 -126 -347 -505 -447 -676 -113 -192 -234 -475 -219 -512 5
-16 -51 -152 -119 -288 -54 -108 -97 -244 -108 -334 -10 -90 -26 -115 -101
-161 -63 -38 -131 -60 -211 -69 -60 -6 -71 -15 -41 -32 32 -17 -71 -37 -447
-86 -552 -72 -611 -83 -662 -132 -22 -21 -28 -36 -28 -69 0 -24 5 -54 11 -68
9 -18 9 -29 1 -38 -17 -22 -24 -81 -13 -123 46 -177 108 -305 148 -305 10 0
10 -6 -3 -25 -16 -24 -15 -28 12 -83 51 -100 116 -123 243 -83 l61 19 -20 -25
c-40 -51 -17 -133 53 -185 109 -84 186 -92 310 -35 l77 36 0 -30 c0 -71 51
-104 145 -97 174 14 608 265 885 512 41 37 83 72 92 77 16 8 17 7 8 -17 -6
-15 -9 -29 -6 -31 8 -8 124 48 142 68 24 27 31 24 39 -14 3 -17 13 -54 22 -81
l16 -50 18 23 c21 25 59 123 59 151 0 27 16 33 42 16 23 -15 108 -48 108 -42
0 2 -7 20 -15 39 -19 47 -19 60 1 23 16 -29 48 -132 135 -436 54 -189 74 -335
49 -365 -19 -23 -87 -18 -155 11 -33 14 -85 37 -116 50 -65 27 -108 30 -242
17 -111 -11 -128 -21 -151 -89 -8 -24 -14 -44 -13 -44 1 0 20 7 42 15 55 20
101 19 109 -2 8 -20 -5 -29 -53 -38 -19 -4 -55 -17 -81 -30 -25 -13 -64 -28
-87 -34 -60 -16 -93 -59 -93 -122 l0 -50 43 34 c70 57 81 60 121 36 41 -24
143 -28 251 -9 110 18 267 23 380 11 165 -18 359 -98 634 -264 167 -100 220
-121 283 -113 44 6 50 4 88 -31 42 -37 80 -99 80 -128 0 -9 6 -15 13 -13 7 3
13 30 15 74 3 75 -14 135 -51 177 -12 13 -29 37 -37 53 -24 44 -105 78 -315
129 -171 41 -325 96 -325 115 0 14 92 20 161 10 92 -13 135 -23 253 -60 122
-37 221 -53 261 -42 61 17 236 -83 251 -144 9 -36 24 -18 24 29 -1 78 -49 149
-137 203 -95 59 -146 72 -403 103 -243 30 -388 58 -447 87 -123 59 -206 226
-232 466 -15 134 -14 152 4 109 21 -47 38 -29 70 74 49 161 155 284 293 340
107 43 363 85 577 94 105 5 191 8 192 7 1 -1 -5 -33 -13 -71 -23 -103 -15
-226 18 -290 39 -76 98 -132 98 -93 0 20 138 -132 190 -210 54 -80 58 -93 34
-113 -24 -20 -95 -13 -192 20 -75 26 -101 30 -193 29 -132 0 -155 -11 -184
-88 -22 -58 -31 -66 -89 -75 -26 -4 -51 -18 -73 -40 -29 -29 -33 -39 -33 -86
0 -53 1 -53 18 -33 42 51 152 98 152 65 0 -41 90 -53 190 -26 30 9 100 18 155
21 112 7 176 -6 450 -91 178 -55 275 -97 395 -168 63 -38 105 -57 127 -57 43
0 95 -52 121 -122 l20 -53 7 49 c11 70 -9 150 -50 195 -18 20 -35 46 -39 58
-12 39 -71 80 -157 108 -45 15 -108 38 -138 51 l-56 23 105 0 c128 1 194 -14
336 -75 59 -25 124 -48 144 -51 41 -6 154 -48 189 -71 13 -9 37 -34 52 -56
l29 -39 0 52 c0 28 -6 66 -14 84 -14 34 -72 91 -110 108 -12 6 -26 20 -31 32
-19 40 -172 100 -336 132 -46 8 -163 20 -259 25 -195 10 -264 22 -330 55 -58
30 -78 52 -194 214 -107 149 -111 161 -81 274 48 185 191 357 480 580 75 57
193 163 280 251 83 83 176 169 208 190 121 82 227 219 273 356 10 30 29 69 41
85 144 196 117 508 -72 830 -36 62 -55 106 -59 140 -7 57 -35 101 -122 195
-239 258 -375 462 -453 683 -40 114 -40 121 2 113 86 -16 409 -61 897 -126
1112 -146 1409 -204 1665 -324 235 -111 495 -316 650 -514 57 -74 55 -75 91
64 53 211 55 497 5 734 -116 547 -451 1043 -926 1372 -474 328 -1168 548
-1785 565 -207 6 -267 -1 -342 -37 -23 -11 -42 -20 -43 -20 0 0 1 18 3 40 2
22 1 52 -2 66 -10 37 -45 28 -75 -18 -26 -40 -41 -41 -41 -2 0 53 -55 144 -87
144 -9 0 -13 -14 -14 -42 -1 -24 -4 -54 -8 -68 -7 -24 -7 -24 -29 12 -29 47
-114 123 -166 150 -52 26 -183 33 -281 14z"/>
</g>
</svg>
